<svg width="46" height="48" viewBox="0 0 46 48" fill="none" xmlns="http://www.w3.org/2000/svg">
    <path fill-rule="evenodd" clip-rule="evenodd" d="M46 36.1891V14.1834C46 13.0969 45.4125 12.0953 44.4642 11.565L24.4642 0.381557C23.5543 -0.127186 22.4457 -0.127186 21.5358 0.381557L1.53584 11.565C0.587494 12.0953 0 13.0969 0 14.1834V36.1891C0 37.3782 0.70232 38.4551 1.7905 38.9345L21.7905 47.7457C22.5611 48.0852 23.4389 48.0852 24.2095 47.7457L44.2095 38.9345C45.2977 38.4551 46 37.3782 46 36.1891ZM20.4633 26.1995C21.426 25.6566 22.208 24.3165 22.208 23.2096V3.05753C22.208 1.94897 21.4238 1.49687 20.4596 2.04961L2.5248 12.3315C1.5676 12.8803 0.794212 14.2129 0.794212 15.3134V35.2978C0.794212 36.4 1.56981 36.8544 2.52845 36.3137L20.4633 26.1995Z" fill="#FFD964" />
</svg>
