<svg width="46" height="48" viewBox="0 0 46 48" fill="none" xmlns="http://www.w3.org/2000/svg">
    <path fill-rule="evenodd" clip-rule="evenodd" d="M0 11.8112V33.8169C0 34.9034 0.587496 35.905 1.53584 36.4353L21.5358 47.6187C22.4457 48.1275 23.5543 48.1275 24.4642 47.6187L44.4642 36.4353C45.4125 35.905 46 34.9034 46 33.8169V11.8112C46 10.6221 45.2977 9.54522 44.2095 9.06581L24.2095 0.254621C23.4389 -0.0848736 22.5611 -0.0848739 21.7905 0.254621L1.7905 9.06581C0.702323 9.54521 0 10.6221 0 11.8112ZM25.5367 21.8008C24.574 22.3437 23.792 23.6838 23.792 24.7907V44.9428C23.792 46.0513 24.5762 46.5034 25.5404 45.9507L43.4752 35.6688C44.4324 35.12 45.2058 33.7874 45.2058 32.6869V12.7025C45.2058 11.6003 44.4302 11.1459 43.4715 11.6866L25.5367 21.8008Z" fill="#395BDB" />
</svg>


