<svg width="50" height="50" viewBox="0 0 50 50" fill="none" xmlns="http://www.w3.org/2000/svg">
    <path d="M30 15H20C17.2386 15 15 17.2386 15 20V30C15 32.7614 17.2386 35 20 35H30C32.7614 35 35 32.7614 35 30V20C35 17.2386 32.7614 15 30 15Z" stroke="white" stroke-width="2" stroke-linecap="round" stroke-linejoin="round" />
    <path d="M29.0002 24.3701C29.1236 25.2023 28.9815 26.0523 28.594 26.7991C28.2065 27.5459 27.5933 28.1515 26.8418 28.5297C26.0903 28.908 25.2386 29.0397 24.408 28.906C23.5773 28.7723 22.81 28.3801 22.215 27.7852C21.6201 27.1903 21.2279 26.4229 21.0943 25.5923C20.9606 24.7616 21.0923 23.91 21.4705 23.1584C21.8488 22.4069 22.4544 21.7938 23.2012 21.4063C23.948 21.0188 24.7979 20.8766 25.6302 21.0001C26.4791 21.1259 27.265 21.5215 27.8719 22.1284C28.4787 22.7352 28.8743 23.5211 29.0002 24.3701Z" stroke="white" stroke-width="2" stroke-linecap="round" stroke-linejoin="round" />
    <path d="M30.5 19.5H30.51" stroke="white" stroke-width="2" stroke-linecap="round" stroke-linejoin="round" />
</svg>

