<svg width="46" height="48" viewBox="0 0 46 48" fill="none" xmlns="http://www.w3.org/2000/svg">
    <path fill-rule="evenodd" clip-rule="evenodd" d="M0 36.1891V14.1834C0 13.0969 0.587496 12.0953 1.53584 11.565L21.5358 0.381557C22.4457 -0.127186 23.5543 -0.127186 24.4642 0.381557L44.4642 11.565C45.4125 12.0953 46 13.0969 46 14.1834V36.1891C46 37.3782 45.2977 38.4551 44.2095 38.9345L24.2095 47.7457C23.4389 48.0852 22.5611 48.0852 21.7905 47.7457L1.7905 38.9345C0.702323 38.4551 0 37.3782 0 36.1891ZM25.5367 26.1995C24.574 25.6566 23.792 24.3165 23.792 23.2096V3.05753C23.792 1.94897 24.5762 1.49687 25.5404 2.04961L43.4752 12.3315C44.4324 12.8803 45.2058 14.2129 45.2058 15.3134V35.2978C45.2058 36.4 44.4302 36.8544 43.4715 36.3137L25.5367 26.1995Z" fill="#DB3990" />
</svg>
