<svg width="50" height="50" viewBox="0 0 50 50" fill="none" xmlns="http://www.w3.org/2000/svg">
    <path d="M26.1467 23.4448L25.8869 23.7403L26.113 24.0622L32.0379 32.5H32.0341L31.4746 31.7169L26.1919 24.3231L26.1919 24.3231L25.559 23.4373L25.559 23.4373L21.495 17.7491L21.3455 17.5397H21.0882H18.9201H17.99L17.9621 17.5H21.5045L25.486 23.1699L25.8511 23.6899L26.2707 23.2127L31.2932 17.5H31.3732L26.1467 23.4448ZM28.4928 32.2982L28.637 32.5H28.4955L24.2824 26.5005L23.9172 25.9805L23.4977 26.4577L18.1854 32.5H18.1054L23.6221 26.2256L23.8819 25.9301L23.6558 25.6081L20.3728 20.9329L23.5491 25.3787L23.5491 25.3787L24.182 26.2645L24.182 26.2645L28.4928 32.2982Z" fill="white" stroke="white" />
</svg>


