<svg width="50" height="50" viewBox="0 0 50 50" fill="none" xmlns="http://www.w3.org/2000/svg">
    <path d="M15.5 30C14.8014 26.7033 14.8014 23.2967 15.5 20C15.5918 19.6652 15.7691 19.3601 16.0146 19.1146C16.2601 18.8691 16.5652 18.6918 16.9 18.6C22.2635 17.7115 27.7366 17.7115 33.1 18.6C33.4348 18.6918 33.7399 18.8691 33.9854 19.1146C34.2309 19.3601 34.4082 19.6652 34.5 20C35.1986 23.2967 35.1986 26.7033 34.5 30C34.4082 30.3348 34.2309 30.6399 33.9854 30.8854C33.7399 31.1309 33.4348 31.3082 33.1 31.4C27.7366 32.2887 22.2634 32.2887 16.9 31.4C16.5652 31.3082 16.2601 31.1309 16.0146 30.8854C15.7691 30.6399 15.5918 30.3348 15.5 30Z" stroke="white" stroke-width="2" stroke-linecap="round" stroke-linejoin="round" />
    <path d="M23 28L28 25L23 22V28Z" fill="white" stroke="white" stroke-width="2" stroke-linecap="round" stroke-linejoin="round" />
</svg>


